<?xml version="1.0" encoding="utf-8"?>
<!-- Generator: Adobe Illustrator 21.0.2, SVG Export Plug-In . SVG Version: 6.00 Build 0)  -->
<svg version="1.1" id="afcd27bc-9e58-484b-acf0-96ac0ca03cce"
	 xmlns="http://www.w3.org/2000/svg" xmlns:xlink="http://www.w3.org/1999/xlink" x="0px" y="0px" viewBox="0 0 398.3 318.9"
	 style="enable-background:new 0 0 398.3 318.9;" xml:space="preserve">
<style type="text/css">
	.st0{fill:#ECECEC;}
	.st1{opacity:0.2;fill:#ECECEC;enable-background:new    ;}
</style>
<g>
	<polygon class="st0" points="145.4,286 148.8,287 154.4,274.2 149.4,272.7 	"/>
	<path class="st0" d="M144.9,284.6l6.8,2l0,0c2.4,0.7,3.7,3.2,3,5.6l0,0.1l-11.1-3.3L144.9,284.6z"/>
	<polygon class="st0" points="178.1,288.8 181.4,287.5 178.3,273.9 173.3,275.8 	"/>
	<path class="st0" d="M176.8,288l6.6-2.4l0,0c2.3-0.9,4.9,0.3,5.8,2.7l0.1,0.1l-10.9,4L176.8,288z"/>
	<polygon class="st0" points="151.2,262.8 145.3,282.2 152.3,284.2 159.1,266.3 	"/>
	<polygon class="st0" points="169.6,267.2 174.9,285.4 182.2,281.9 176.9,264.9 	"/>
	<path class="st0" d="M166.9,270.5c-4.7,0-9.4-0.5-14-1.3l-0.1,0v-4.5l-2.7-0.3l2.1-7.5c-1-11.5,0.4-26,0.9-30.2
		c0.1-1,0.2-1.5,0.2-1.5l2.3-20l3.9-3.6l1.8,1.2l3.3,3.3c3.8,9.5,6.9,18.4,6.9,19l12.9,41.4l-0.1,0.1
		C179.9,269.6,173,270.5,166.9,270.5z"/>
	<polygon class="st1" points="157.2,214.1 156.3,219.7 162.4,222.2 	"/>
	<path class="st0" d="M169.2,201.6h-14.1c-0.6,0-1.1-0.5-1.1-1.1v-6.1c0-4.5,3.7-8.2,8.2-8.1c4.5,0,8.1,3.6,8.1,8.1v6.1
		C170.3,201.1,169.8,201.6,169.2,201.6z"/>
	<circle class="st0" cx="163.7" cy="195.2" r="6"/>
	<path class="st0" d="M172.2,195h-8.6l-0.1-1.2l-0.4,1.2h-1.3l-0.2-2.5l-0.9,2.5h-2.6v-0.1c0-3.6,2.9-6.5,6.5-6.5h1.2
		c3.6,0,6.5,2.9,6.5,6.5V195z"/>
	<path class="st0" d="M163.5,202.7c-0.1,0-0.1,0-0.2,0l-6.3-1.1v-10.5h7l-0.2,0.2c-2.4,2.8-0.6,7.3,0.7,9.8c0.2,0.4,0.2,0.8-0.1,1.1
		C164.2,202.5,163.9,202.7,163.5,202.7z"/>
	<path class="st0" d="M174.7,228h-3.5c-0.2,0-0.4-0.2-0.4-0.4l-0.7-7.1h5.7l-0.7,7.1C175.1,227.8,174.9,228,174.7,228z"/>
	<path class="st0" d="M175.8,221.4h-5.7c-0.2,0-0.4-0.2-0.4-0.4v-1.1c0-0.2,0.2-0.4,0.4-0.4h5.7c0.2,0,0.4,0.2,0.4,0.4v1.1
		C176.3,221.2,176.1,221.4,175.8,221.4z"/>
	<path class="st1" d="M153.4,224.9L153.4,224.9c3.3,3.8,8.7,4.9,13.2,2.7l1.3-0.6L153.4,224.9z"/>
	<path class="st0" d="M174.2,223.5c-1-1.1-2.7-1.2-3.9-0.2c-0.1,0.1-0.2,0.2-0.3,0.4l-6-1.7l-1.9,3.4l8.6,2.3c1.3,0.9,3,0.5,3.8-0.7
		C175.1,225.9,175,224.5,174.2,223.5z"/>
	<path class="st0" d="M159.8,227.3c-2.9,0-6.8-1.7-11.4-4.9c-0.5-0.4-0.9-0.9-1-1.5c-0.3-2.2,1.8-5.1,2-5.3l2.2-6.1
		c0-0.1,0.7-2.7,2.5-3.7c0.8-0.4,1.7-0.4,2.4-0.1c3.4,1.2,0.7,10.8,0.4,12.1l4.5,2.1l2.9,1.8l3.9,0.4l-1.1,4.9l-6,0.1
		C160.8,227.3,160.3,227.3,159.8,227.3z"/>
	<path class="st0" d="M374,182.3c0-21.5-17.4-38.8-38.9-38.8c-21.5,0-38.8,17.4-38.8,38.9c0,5.2,1.1,10.4,3.1,15.3
		c0,0-0.1-0.1-0.1-0.1c1.7,4,4.1,7.7,7.1,11c0,0,0,0,0,0c0.2,0.3,0.5,0.5,0.7,0.8c7.2,7.5,17,11.8,27.4,11.9l-1.3,71.3h4.1
		l-0.8-47.1l5.9-3.1l-0.9-1.7l-5,2.6l-0.4-22.1C357.1,220.7,374,203.5,374,182.3z"/>
	<path class="st0" d="M258.7,163.4c0-25.1-20.4-45.5-45.6-45.5c-25.1,0-45.5,20.4-45.5,45.6c0,6.1,1.3,12.2,3.7,17.9
		c0,0-0.1-0.1-0.1-0.1c2,4.7,4.8,9.1,8.3,12.8c0,0,0,0,0,0c0.3,0.3,0.6,0.6,0.8,0.9c8.4,8.8,20,13.8,32.1,14l-1.5,83.6h4.8l-1-55.2
		l6.9-3.6l-1-2l-5.9,3.1l-0.5-25.9C238.9,208.4,258.7,188.1,258.7,163.4z"/>
	<path class="st0" d="M127.9,145.6c0-28.6-23.2-51.8-51.8-51.8c-28.6,0-51.8,23.2-51.8,51.8c0,7,1.4,13.9,4.2,20.3
		c-0.1-0.1-0.1-0.1-0.2-0.2c2.3,5.4,5.5,10.3,9.4,14.6c0,0,0,0,0,0c0.3,0.3,0.6,0.7,1,1c9.6,10,22.7,15.7,36.5,15.9l-1.8,95.1h5.4
		l-1.1-62.8l7.8-4.1l-1.2-2.3l-6.7,3.5l-0.5-29.5C105.4,196.8,127.9,173.7,127.9,145.6z"/>
	<circle class="st0" cx="322.4" cy="59.9" r="33.9"/>
	<circle class="st0" cx="120.9" cy="100" r="67.9"/>
	<path class="st1" d="M70.8,54.6C56,89.1,72,129,106.5,143.7c26.8,11.5,58,4.5,77.4-17.3c-14.7,34.5-54.7,50.5-89.2,35.8
		S44.3,107.6,59,73.1C61.9,66.3,65.9,60.1,70.8,54.6z"/>
	<polygon class="st0" points="121.1,100 121.3,100 124.6,292.5 117.6,292.5 	"/>
	
		<rect x="120.7" y="204.6" transform="matrix(0.8849 -0.4659 0.4659 0.8849 -81.4775 82.9501)" class="st0" width="12.7" height="3.4"/>
	<path class="st0" d="M224.8,290.7c0,0,0.2-5.1,5.3-4.5"/>
	<circle class="st0" cx="223.4" cy="283.3" r="2.5"/>
	<rect x="223" y="287.5" class="st0" width="0.7" height="5"/>
	<path class="st0" d="M50.6,290c0,0,0.2-5.1,5.3-4.5"/>
	<circle class="st0" cx="49.1" cy="282.6" r="2.5"/>
	<rect x="48.7" y="286.8" class="st0" width="0.7" height="5"/>
	<path class="st0" d="M91.7,290.3c0,0,0.2-5.1,5.3-4.5"/>
	<circle class="st0" cx="90.3" cy="282.9" r="2.5"/>
	<rect x="89.9" y="287.2" class="st0" width="0.7" height="5"/>
	<path class="st0" d="M201.2,58.8l5-4c-3.9-0.4-5.5,1.7-6.2,3.4c-3.1-1.3-6.4,0.4-6.4,0.4l10.1,3.7
		C203.2,60.9,202.4,59.7,201.2,58.8z"/>
	<path class="st0" d="M277.9,99.9l5-4c-3.9-0.4-5.5,1.7-6.2,3.4c-3.1-1.3-6.4,0.4-6.4,0.4l10.1,3.7C279.9,102,279,100.8,277.9,99.9z
		"/>
	<path class="st0" d="M195.2,135l5-4c-3.9-0.4-5.5,1.7-6.2,3.4c-3.1-1.3-6.4,0.4-6.4,0.4l10.1,3.7C197.2,137,196.3,135.9,195.2,135z
		"/>
	<path class="st0" d="M293.6,292.6c0,0,0.2-5.1,5.3-4.5"/>
	<path class="st0" d="M246.4,292.6c0,0,0.2-5.1,5.3-4.5"/>
	<path class="st0" d="M74.3,292.6c0,0,0.2-5.1,5.3-4.5"/>
	<path class="st0" d="M314.9,292.6c0,0,0.2-5.1,5.3-4.5"/>
	<path class="st0" d="M304.9,292.6c0,0,0.2-5.1,5.3-4.5"/>
	<path class="st0" d="M284.4,292.6c0,0-0.2-5.1-5.3-4.5"/>
	<path class="st0" d="M202.8,292.6c0,0-0.2-5.1-5.3-4.5"/>
	<path class="st0" d="M135.1,292.6c0,0-0.2-5.1-5.3-4.5"/>
	<path class="st0" d="M63,292.6c0,0-0.2-5.1-5.3-4.5"/>
	<path class="st0" d="M336.3,292.6c0,0-0.2-5.1-5.3-4.5"/>
	<path class="st0" d="M305.7,292.9c0,0-0.2-5.1-5.3-4.5"/>
	<rect x="24.1" y="291.9" class="st0" width="350" height="0.8"/>
</g>
</svg>
