<?xml version="1.0" encoding="utf-8"?>
<!-- Generator: Adobe Illustrator 21.0.2, SVG Export Plug-In . SVG Version: 6.00 Build 0)  -->
<svg version="1.1" id="Camada_1" xmlns="http://www.w3.org/2000/svg" xmlns:xlink="http://www.w3.org/1999/xlink" x="0px" y="0px"
	 viewBox="0 0 500 355" style="enable-background:new 0 0 500 355;" xml:space="preserve">
<style type="text/css">
	.st0{fill:#E6E6E6;}
	.st1{fill:#6C63FF;}
	.st2{fill:#3F3D56;}
	.st3{fill:#A0616A;}
	.st4{fill:#2F2E41;}
	.st5{fill:#CCCCCC;}
</style>
<g>
	<ellipse id="Ellipse_44" class="st0" cx="93.8" cy="279" rx="58.2" ry="58.2"/>
	<ellipse id="Ellipse_45" class="st1" cx="196.5" cy="71.3" rx="58.2" ry="58.2"/>
	<path id="Path_280" class="st2" d="M233.9,337.3L26.1,129.5h208.1v0.9H28.3l206.2,206.2L233.9,337.3z"/>
	<rect id="Rectangle_20" y="337.3" class="st2" width="234.5" height="0.9"/>
	<g id="Group_18" transform="translate(596.399 143.464)">
		<path id="Path_314" class="st3" d="M-190.8,11.7c1.5-4.8-1.2-9.8-6-11.3c-0.5-0.2-1-0.3-1.6-0.3l-43.3-50.6L-251.8-40l43.1,48.5
			c-0.3,5,3.6,9.3,8.6,9.6C-195.9,18.4-192.1,15.7-190.8,11.7L-190.8,11.7z"/>
		<path id="Path_315" class="st1" d="M-227.6-42.7c0.1-1.1-0.3-2.2-1.1-3L-242-59.2c-3.4-4.7-10-5.8-14.7-2.3
			c-4.7,3.4-5.8,10-2.3,14.7l0,0l8.9,16.9c1,1.9,3.3,2.6,5.1,1.6c0.2-0.1,0.3-0.2,0.5-0.3l15.5-11.3
			C-228.2-40.6-227.7-41.6-227.6-42.7z"/>
		<ellipse id="Ellipse_53" class="st3" cx="-259" cy="-94.4" rx="20.7" ry="20.7"/>
		<path id="Path_316" class="st4" d="M-247.7-1.7c0.8-0.6,1.4-1.6,1.5-2.6c1.4-12,3.5-23.8,6.2-35.6c2.8-12-4.8-24-16.8-26.8
			c-9.8-2.2-19.9,2.4-24.7,11.3c-8.1,15.3-8.8,36.3-8.7,44.6c0,1.8,1.4,3.4,3.2,3.7l36.3,6.1c0.2,0,0.4,0.1,0.6,0.1
			C-249.2-1-248.4-1.2-247.7-1.7L-247.7-1.7z"/>
		<path id="Path_317" class="st3" d="M-326.2-69.2c0.1,0.5,0.2,0.9,0.2,1.4l36.2,20.9l8.8-5.1l9.4,12.3l-14.7,10.5
			c-2.4,1.7-5.7,1.7-8.1-0.2l-37.3-29.5c-4.6,1.7-9.7-0.6-11.4-5.2c-1.7-4.6,0.6-9.7,5.2-11.4c4.6-1.7,9.7,0.6,11.4,5.2
			C-326.4-69.9-326.2-69.5-326.2-69.2L-326.2-69.2z"/>
		<path id="Path_318" class="st1" d="M-288.5-45.9l11.7,15.2c1.3,1.7,3.7,2,5.3,0.7c0.1-0.1,0.3-0.2,0.4-0.4l13.3-13.8
			c4.6-3.6,5.4-10.2,1.9-14.8c-3.6-4.6-10.2-5.4-14.8-1.9l0,0l-16.6,9.3c-1.8,1-2.5,3.3-1.5,5.2C-288.8-46.2-288.6-46-288.5-45.9
			L-288.5-45.9z"/>
		<path id="Path_319" class="st3" d="M-306.8,184.7h-10.3l-2.4-39.7l12.8-0.1L-306.8,184.7z"/>
		<path id="Path_320" class="st4" d="M-304.1,181.4h-20.4l0,0c-7.2,0-13,5.8-13,13c0,0,0,0,0,0v0.4h33.3L-304.1,181.4z"/>
		<path id="Path_321" class="st3" d="M-208.1,184.7h-10.3l-4.9-39.9h15.3L-208.1,184.7z"/>
		<path id="Path_322" class="st4" d="M-205.5,181.4h-20.4l0,0c-7.2,0-13,5.8-13,13c0,0,0,0,0,0v0.4h33.3L-205.5,181.4z"/>
		<path id="Path_323" class="st4" d="M-219.4,164l12.8-1.7c2.1-0.3,3.5-2.2,3.3-4.3c0-0.2-0.1-0.3-0.1-0.5l-18.7-91.9
			c-1.9-8.9-3.1-18-3.9-27.1c-0.5-7.4-2.7-17.9-9.9-25.7c-2.9-3.2-5.7-6.6-8.2-10.1l-5.7-7.8l-37.7-6l0,0.5
			c-1.6,30-9.4,59.3-22.9,86.1c-6.1,12.1-9.5,25.3-10.2,38.8l-2.1,41.7c-0.1,1.1,0.3,2.1,1.1,2.9c0.8,0.8,1.8,1.2,2.9,1.1l12.3-0.6
			c1.7-0.1,3.2-1.3,3.5-3l10.2-45.7c0.1-0.4,0.3-0.8,0.5-1.1l32.1-42.8c0.7-0.9,2-1.1,3-0.4c0.3,0.3,0.6,0.6,0.7,1l32.9,94.1
			c0.5,1.5,2,2.5,3.6,2.5C-219.7,164.1-219.6,164-219.4,164L-219.4,164z"/>
		<path id="Path_324" class="st4" d="M-236.1-108.8c-1.6-5-2.9-10.1-3.6-15.3c-0.2-3,0.5-6.3,2.7-8.4c4.1-3.9,11.1-2,15.4,1.7
			c6.2,5.3,9.3,13.5,10.5,21.7s0.7,16.4,0.9,24.6s1.5,16.6,5.6,23.7c4.2,7.1,11.9,12.5,20.1,11.9c3.3-0.2,6.4-1.5,8.9-3.8
			c2.4-2.3,3.6-5.6,3.1-8.9c4.2,7.5,2.1,17.6-4.2,23.5s-15.8,7.6-24,5c-8.2-2.5-14.9-8.8-19-16.4s-5.5-16.3-5.3-24.9
			c0.2-6.6,1.3-13.2,0.2-19.7c-1.1-6.5-5.2-13.1-11.6-14.6L-236.1-108.8z"/>
		<path id="Path_325" class="st4" d="M-264.9-100.2c-1.1,3.6-5.3,5.9-9,5.3c-3.8-0.6-6.8-3.7-8-7.3c-1-3.7-0.6-7.7,1.2-11.1
			c2-4.1,5.5-7.3,9.9-8.8c4.4-1.5,9.2-0.7,12.9,2.1c0.4-1.7,1.7-3,3.3-3.5c1.6-0.4,3.4-0.4,5,0.1c4.7,1.3,8.7,4.3,11.4,8.3
			c2.7,4,4.4,8.6,5.2,13.3c1.3,7.1,0.8,14.9-3.2,21c-4,6-12.2,9.6-18.9,6.7c-0.4-2.1,0.6-4.3,1.7-6.1c1.1-1.8,2.5-3.6,2.9-5.7
			c0.4-2.1-0.4-4.7-2.4-5.4c-1.7-0.6-3.6,0.4-5.5,0.5c-3.3,0.2-6.1-2.3-6.3-5.6c-0.1-1,0.1-2.1,0.6-3L-264.9-100.2z"/>
	</g>
	<rect id="Rectangle_23" x="426.2" y="337.3" class="st5" width="73.8" height="0.9"/>
	<path id="Path_292" class="st5" d="M469.2,308.9c-7.8,12.7-5.1,28.5-5.1,28.5s15.3-4.8,23.1-17.5s5.1-28.5,5.1-28.5
		S477,296.2,469.2,308.9z"/>
	<path id="Path_293" class="st5" d="M464.4,337.9l-0.4-0.1c-0.2,0-15.5-5-23.3-17.7c-7.8-12.7-5.2-28.6-5.2-28.8l0.1-0.4l0.4,0.1
		c0.2,0,15.5,5,23.3,17.7l0,0c7.8,12.7,5.2,28.6,5.2,28.8L464.4,337.9z M436.2,291.9c-0.4,2.7-1.8,16.5,5.1,27.8
		c6.9,11.2,19.9,16.3,22.4,17.2c0.4-2.7,1.8-16.5-5.1-27.8l0,0C451.8,297.9,438.8,292.8,436.2,291.9z"/>
	<ellipse id="Ellipse_48" class="st5" cx="464.6" cy="287.6" rx="8.6" ry="8.6"/>
</g>
</svg>
